<svg xmlns="http://www.w3.org/2000/svg" xmlns:xlink="http://www.w3.org/1999/xlink" contentStyleType="text/css" data-diagram-type="DESCRIPTION" height="608px" preserveAspectRatio="none" style="width:619px;height:608px;background:#FFFFFF;" version="1.1" viewBox="0 0 619 608" width="619px" zoomAndPan="magnify"><defs/><g><!--cluster Scoring System--><g class="cluster" data-entity="Scoring System" data-source-line="5" data-uid="ent0005" id="cluster_Scoring System"><rect fill="none" height="473.24" rx="2.5" ry="2.5" style="stroke:#181818;stroke-width:1;" width="491" x="7" y="128.79"/><text fill="#000000" font-family="sans-serif" font-size="14" font-weight="bold" lengthAdjust="spacing" textLength="122.8828" x="191.0586" y="143.7851">Scoring System</text></g><!--entity UC1--><g class="entity" data-entity="UC1" data-source-line="6" data-uid="ent0006" id="entity_UC1"><ellipse cx="255.9989" cy="182.0458" fill="#F1F1F1" rx="79.2789" ry="18.2558" style="stroke:#181818;stroke-width:0.5;"/><text fill="#000000" font-family="sans-serif" font-size="14" lengthAdjust="spacing" textLength="128.9736" x="191.5121" y="186.6942">Enter scoring data</text></g><!--entity UC2--><g class="entity" data-entity="UC2" data-source-line="7" data-uid="ent0007" id="entity_UC2"><ellipse cx="198.9992" cy="299.5818" fill="#F1F1F1" rx="99.3592" ry="22.2718" style="stroke:#181818;stroke-width:0.5;"/><text fill="#000000" font-family="sans-serif" font-size="14" lengthAdjust="spacing" textLength="174.6445" x="111.677" y="304.2303">Detect round completion</text></g><!--entity UC3--><g class="entity" data-entity="UC3" data-source-line="8" data-uid="ent0008" id="entity_UC3"><ellipse cx="162.9998" cy="436.996" fill="#F1F1F1" rx="139.8798" ry="30.376" style="stroke:#181818;stroke-width:0.5;"/><text fill="#000000" font-family="sans-serif" font-size="14" lengthAdjust="spacing" textLength="261.3516" x="32.324" y="441.6444">All clients switch to leaderboard view</text></g><!--entity UC4--><g class="entity" data-entity="UC4" data-source-line="9" data-uid="ent0009" id="entity_UC4"><ellipse cx="410.0029" cy="437.0006" fill="#F1F1F1" rx="71.8029" ry="16.7606" style="stroke:#181818;stroke-width:0.5;"/><text fill="#000000" font-family="sans-serif" font-size="14" lengthAdjust="spacing" textLength="110.8857" x="354.56" y="441.649">Update Screens</text></g><!--entity UC5--><g class="entity" data-entity="UC5" data-source-line="10" data-uid="ent0010" id="entity_UC5"><ellipse cx="369.0012" cy="561.0922" fill="#F1F1F1" rx="112.7112" ry="24.9422" style="stroke:#181818;stroke-width:0.5;"/><text fill="#000000" font-family="sans-serif" font-size="14" lengthAdjust="spacing" textLength="203.7314" x="267.1355" y="565.7407">Display updated leaderboard</text></g><!--entity Max--><g class="entity" data-entity="Max" data-source-line="1" data-uid="ent0002" id="entity_Max"><ellipse cx="327.0017" cy="14" fill="#F1F1F1" rx="8" ry="8" style="stroke:#181818;stroke-width:0.5;"/><path d="M327.0017,22 L327.0017,49 M314.0017,30 L340.0017,30 M327.0017,49 L314.0017,64 M327.0017,49 L340.0017,64" fill="none" style="stroke:#181818;stroke-width:0.5;"/><text fill="#000000" font-family="sans-serif" font-size="14" lengthAdjust="spacing" textLength="28.9434" x="312.53" y="78.4951">Max</text></g><!--entity Alice--><g class="entity" data-entity="Alice" data-source-line="2" data-uid="ent0003" id="entity_Alice"><ellipse cx="534.0035" cy="407.35" fill="#F1F1F1" rx="8" ry="8" style="stroke:#181818;stroke-width:0.5;"/><path d="M534.0035,415.35 L534.0035,442.35 M521.0035,423.35 L547.0035,423.35 M534.0035,442.35 L521.0035,457.35 M534.0035,442.35 L547.0035,457.35" fill="none" style="stroke:#181818;stroke-width:0.5;"/><text fill="#000000" font-family="sans-serif" font-size="14" lengthAdjust="spacing" textLength="33.667" x="517.17" y="471.8451">Alice</text></g><!--entity Bob--><g class="entity" data-entity="Bob" data-source-line="3" data-uid="ent0004" id="entity_Bob"><ellipse cx="598.9983" cy="407.35" fill="#F1F1F1" rx="8" ry="8" style="stroke:#181818;stroke-width:0.5;"/><path d="M598.9983,415.35 L598.9983,442.35 M585.9983,423.35 L611.9983,423.35 M598.9983,442.35 L585.9983,457.35 M598.9983,442.35 L611.9983,457.35" fill="none" style="stroke:#181818;stroke-width:0.5;"/><text fill="#000000" font-family="sans-serif" font-size="14" lengthAdjust="spacing" textLength="27.0566" x="585.47" y="471.8451">Bob</text></g><!--link Max to UC1--><g class="link" data-entity-1="Max" data-entity-2="UC1" data-source-line="13" data-uid="lnk11" id="link_Max_UC1"><path d="M312.12,73.24 C297.88,100.58 279.6616,135.5985 267.7916,158.3885" fill="none" id="Max-to-UC1" style="stroke:#181818;stroke-width:1;"/><polygon fill="#181818" points="265.02,163.71,272.7251,157.5756,267.3297,159.2754,265.6298,153.88,265.02,163.71" style="stroke:#181818;stroke-width:1;"/></g><!--link UC1 to UC2--><g class="link" data-entity-1="UC1" data-entity-2="UC2" data-source-line="14" data-uid="lnk12" id="link_UC1_UC2"><path d="M247.34,200.6 C237.19,221.17 223.0259,249.8898 212.1359,271.9498" fill="none" id="UC1-to-UC2" style="stroke:#181818;stroke-width:1;"/><polygon fill="#181818" points="209.48,277.33,217.0507,271.0304,211.6933,272.8465,209.8771,267.4892,209.48,277.33" style="stroke:#181818;stroke-width:1;"/><text fill="#000000" font-family="sans-serif" font-size="13" lengthAdjust="spacing" textLength="63.0068" x="233" y="243.3669">&#171;include&#187;</text></g><!--link UC2 to UC3--><g class="link" data-entity-1="UC2" data-entity-2="UC3" data-source-line="15" data-uid="lnk13" id="link_UC2_UC3"><path d="M193.3,322.03 C187.23,344.86 179.1313,375.3113 172.3613,400.7813" fill="none" id="UC2-to-UC3" style="stroke:#181818;stroke-width:1;"/><polygon fill="#181818" points="170.82,406.58,176.9977,398.9096,172.1044,401.7478,169.2662,396.8545,170.82,406.58" style="stroke:#181818;stroke-width:1;"/><text fill="#000000" font-family="sans-serif" font-size="13" lengthAdjust="spacing" textLength="63.0068" x="186" y="364.9169">&#171;include&#187;</text></g><!--link Max to UC4--><g class="link" data-entity-1="Max" data-entity-2="UC4" data-source-line="16" data-uid="lnk14" id="link_Max_UC4"><path d="M341.09,82.26 C345.32,94.44 349.7,108.08 353,120.79 C382.34,233.83 401.1229,367.5705 407.2029,414.1205" fill="none" id="Max-to-UC4" style="stroke:#181818;stroke-width:1;"/><polygon fill="#181818" points="407.98,420.07,410.7807,410.6278,407.3324,415.1121,402.8481,411.6638,407.98,420.07" style="stroke:#181818;stroke-width:1;"/></g><!--link UC3 to UC5--><g class="link" data-entity-1="UC3" data-entity-2="UC5" data-source-line="17" data-uid="lnk15" id="link_UC3_UC5"><path d="M210.26,466.01 C246.73,487.62 291.3681,514.0814 325.4081,534.2514" fill="none" id="UC3-to-UC5" style="stroke:#181818;stroke-width:1;"/><polygon fill="#181818" points="330.57,537.31,324.8663,529.2808,326.2684,534.7612,320.7881,536.1633,330.57,537.31" style="stroke:#181818;stroke-width:1;"/></g><!--link UC4 to UC5--><g class="link" data-entity-1="UC4" data-entity-2="UC5" data-source-line="18" data-uid="lnk16" id="link_UC4_UC5"><path d="M404.64,453.96 C397.61,474.9 387.11,506.1521 378.95,530.4521" fill="none" id="UC4-to-UC5" style="stroke:#181818;stroke-width:1;"/><polygon fill="#181818" points="377.04,536.14,383.6969,528.8815,378.6317,531.4001,376.1131,526.3349,377.04,536.14" style="stroke:#181818;stroke-width:1;"/></g><!--link Alice to UC5--><g class="link" data-entity-1="Alice" data-entity-2="UC5" data-source-line="20" data-uid="lnk17" id="link_Alice_UC5"><path d="M516.81,457.33 C511.08,463.32 504.5,469.76 498,475.15 C469.71,498.58 439.8784,518.1456 413.4984,534.1656" fill="none" id="Alice-to-UC5" style="stroke:#181818;stroke-width:1;"/><polygon fill="#181818" points="408.37,537.28,418.1389,536.0274,412.6437,534.6847,413.9864,529.1895,408.37,537.28" style="stroke:#181818;stroke-width:1;"/></g><!--link Bob to UC5--><g class="link" data-entity-1="Bob" data-entity-2="UC5" data-source-line="21" data-uid="lnk18" id="link_Bob_UC5"><path d="M585.08,458.14 C580.2,464.17 574.34,470.43 568,475.15 C528.06,504.85 481.8236,524.608 441.0436,538.638" fill="none" id="Bob-to-UC5" style="stroke:#181818;stroke-width:1;"/><polygon fill="#181818" points="435.37,540.59,445.1817,541.4445,440.098,538.9634,442.5791,533.8797,435.37,540.59" style="stroke:#181818;stroke-width:1;"/></g><!--SRC=[LP31QiCm38RlVegVt7jOabv62NJhZZk5Fe0gYyxWsi5MrfMnTvy9NfSU39_vFqcsY3KclDENeONsth5KVeadOvAmKZXxGJDoJ2wSCTwoogN1jm7cB4ovX6z19I5NnP9I0yeulZwjhODewOSKvs31yJ9vKHT3LTkrklSUx9q4pSXNf_m1ZV12Lj8fKhBuT7AjbTswyZYLyOAHaqZ8rUWVdk7ovEc6UJ7jkclLj-R7cB8MR3R3yeboAhVFsErSO3zR6OOIj3Ne7eF_whv8NULjuVxEPjdt_Les_iU_]--></g></svg>